<svg class="icon" style="width: 1em; height: 1em;vertical-align: middle;fill: currentColor;overflow: hidden;" viewBox="0 0 1024 1024" version="1.1" xmlns="http://www.w3.org/2000/svg" p-id="2422"><path d="M748.307692 708.923077c0 12.603077-11.027692 23.630769-23.630769 23.630769H330.830769c-12.603077 0-23.630769-11.027692-23.630769-23.630769s11.027692-23.630769 23.630769-23.630769h393.846154c12.603077 0 23.630769 11.027692 23.630769 23.630769zM748.307692 516.726154c0 12.603077-11.027692 23.630769-23.630769 23.630769H330.830769c-12.603077 0-23.630769-11.027692-23.630769-23.630769s11.027692-23.630769 23.630769-23.630769h393.846154c12.603077 0 23.630769 9.452308 23.630769 23.630769zM748.307692 322.953846c0 12.603077-11.027692 23.630769-23.630769 23.630769H330.830769c-12.603077 0-23.630769-11.027692-23.630769-23.630769S318.227692 299.323077 330.830769 299.323077h393.846154c12.603077 0 23.630769 11.027692 23.630769 23.630769zM803.446154 992.492308H250.486154c-81.92 0-148.086154-66.166154-148.086154-148.086154V211.101538c0-81.92 66.166154-148.086154 148.086154-148.086153H803.446154c81.92 0 148.086154 66.166154 148.086154 148.086153v631.729231c1.575385 83.495385-64.590769 149.661538-148.086154 149.661539zM250.486154 110.276923c-55.138462 0-100.824615 45.686154-100.824616 100.824615v631.729231c0 55.138462 45.686154 100.824615 100.824616 100.824616H803.446154c55.138462 0 100.824615-45.686154 100.824615-100.824616V211.101538C905.846154 155.963077 860.16 110.276923 803.446154 110.276923H250.486154z" p-id="2423"></path></svg>