<svg class="icon" style="width: 1.23046875em; height: 1em;vertical-align: middle;fill: currentColor;overflow: hidden;" viewBox="0 0 1260 1024" version="1.1" xmlns="http://www.w3.org/2000/svg" p-id="666"><path d="M307.279 829.125a306.176 306.176 0 0 1-305.94-305.94c0-72.704 25.6-142.73 73.492-198.34a309.642 309.642 0 0 1 182.902-103.346l8.586-1.733 4.253-7.72A414.641 414.641 0 0 1 421.81 58.29 409.6 409.6 0 0 1 630.39 0.945 409.6 409.6 0 0 1 838.892 58.29 421.022 421.022 0 0 1 990.13 212.126l4.333 7.719 8.585 1.733c70.893 11.028 135.877 47.813 182.903 103.345 46.946 55.611 73.491 125.637 73.491 198.341a306.176 306.176 0 0 1-306.018 305.94 36.076 36.076 0 0 1-35.84-35.92c0-19.691 16.226-35.84 35.84-35.84a233.63 233.63 0 0 0 233.314-233.314 233.472 233.472 0 0 0-217.875-232.684l-21.426-0.788-9.452-18.904A342.882 342.882 0 0 0 629.602 76.249c-130.756 0-252.061 76.957-308.539 195.741l-7.719 17.093-21.268 1.654a233.472 233.472 0 0 0-218.19 232.448A233.63 233.63 0 0 0 307.2 756.5c19.692 0 35.919 16.226 35.919 35.918s-16.227 36.707-35.919 36.707z" fill="#999999" p-id="667"></path><path d="M630.39 990.68h-3.466a40.33 40.33 0 0 1-21.267-9.452l-0.946-0.787-161.477-161.556a36.234 36.234 0 0 1-10.24-25.679 34.816 34.816 0 0 1 35.92-35.919c10.24 0 18.746 3.466 25.6 10.32L594.55 867.642V576.985c0-19.693 16.148-35.84 35.84-35.84s35.919 16.226 35.919 35.84v290.658l99.958-100.037a34.816 34.816 0 0 1 25.679-10.24 34.816 34.816 0 0 1 35.84 35.84 36.234 36.234 0 0 1-10.24 25.679L658.59 977.84l-0.867 0.867a41.196 41.196 0 0 1-23.946 12.84h-1.733c-0.787-0.867-0.787-0.867-1.654-0.867z" fill="#999999" p-id="668"></path></svg>